<mxfile host="65bd71144e">
    <diagram id="R2lEEEUBdFMjLlhIrx00" name="Page-1">
        <mxGraphModel dx="1171" dy="490" grid="1" gridSize="10" guides="1" tooltips="1" connect="1" arrows="1" fold="1" page="1" pageScale="1" pageWidth="850" pageHeight="1100" math="0" shadow="0" extFonts="Permanent Marker^https://fonts.googleapis.com/css?family=Permanent+Marker">
            <root>
                <mxCell id="0"/>
                <mxCell id="1" parent="0"/>
                <mxCell id="NiIEI1DRWo_ckf8no3QT-1" value="weatherDate" style="shape=table;startSize=30;container=1;collapsible=1;childLayout=tableLayout;fixedRows=1;rowLines=0;fontStyle=1;align=center;resizeLast=1;" parent="1" vertex="1">
                    <mxGeometry x="280" y="230" width="240" height="130" as="geometry"/>
                </mxCell>
                <mxCell id="NiIEI1DRWo_ckf8no3QT-2" value="" style="shape=partialRectangle;collapsible=0;dropTarget=0;pointerEvents=0;fillColor=none;points=[[0,0.5],[1,0.5]];portConstraint=eastwest;top=0;left=0;right=0;bottom=1;" parent="NiIEI1DRWo_ckf8no3QT-1" vertex="1">
                    <mxGeometry y="30" width="240" height="70" as="geometry"/>
                </mxCell>
                <mxCell id="NiIEI1DRWo_ckf8no3QT-3" value="PK" style="shape=partialRectangle;overflow=hidden;connectable=0;fillColor=none;top=0;left=0;bottom=0;right=0;fontStyle=1;" parent="NiIEI1DRWo_ckf8no3QT-2" vertex="1">
                    <mxGeometry width="30" height="70" as="geometry">
                        <mxRectangle width="30" height="70" as="alternateBounds"/>
                    </mxGeometry>
                </mxCell>
                <mxCell id="NiIEI1DRWo_ckf8no3QT-4" value="_id int " style="shape=partialRectangle;overflow=hidden;connectable=0;fillColor=none;top=0;left=0;bottom=0;right=0;align=left;spacingLeft=6;fontStyle=5;" parent="NiIEI1DRWo_ckf8no3QT-2" vertex="1">
                    <mxGeometry x="30" width="210" height="70" as="geometry">
                        <mxRectangle width="210" height="70" as="alternateBounds"/>
                    </mxGeometry>
                </mxCell>
                <mxCell id="NiIEI1DRWo_ckf8no3QT-5" value="" style="shape=partialRectangle;collapsible=0;dropTarget=0;pointerEvents=0;fillColor=none;points=[[0,0.5],[1,0.5]];portConstraint=eastwest;top=0;left=0;right=0;bottom=0;" parent="NiIEI1DRWo_ckf8no3QT-1" vertex="1">
                    <mxGeometry y="100" width="240" height="30" as="geometry"/>
                </mxCell>
                <mxCell id="NiIEI1DRWo_ckf8no3QT-6" value="" style="shape=partialRectangle;overflow=hidden;connectable=0;fillColor=none;top=0;left=0;bottom=0;right=0;" parent="NiIEI1DRWo_ckf8no3QT-5" vertex="1">
                    <mxGeometry width="30" height="30" as="geometry">
                        <mxRectangle width="30" height="30" as="alternateBounds"/>
                    </mxGeometry>
                </mxCell>
                <mxCell id="NiIEI1DRWo_ckf8no3QT-7" value="weatherDate" style="shape=partialRectangle;overflow=hidden;connectable=0;fillColor=none;top=0;left=0;bottom=0;right=0;align=left;spacingLeft=6;" parent="NiIEI1DRWo_ckf8no3QT-5" vertex="1">
                    <mxGeometry x="30" width="210" height="30" as="geometry">
                        <mxRectangle width="210" height="30" as="alternateBounds"/>
                    </mxGeometry>
                </mxCell>
                <mxCell id="NiIEI1DRWo_ckf8no3QT-9" value="weather" style="shape=table;startSize=30;container=1;collapsible=1;childLayout=tableLayout;fixedRows=1;rowLines=0;fontStyle=1;align=center;resizeLast=1;" parent="1" vertex="1">
                    <mxGeometry x="590" y="230" width="240" height="130" as="geometry"/>
                </mxCell>
                <mxCell id="NiIEI1DRWo_ckf8no3QT-10" value="" style="shape=partialRectangle;collapsible=0;dropTarget=0;pointerEvents=0;fillColor=none;points=[[0,0.5],[1,0.5]];portConstraint=eastwest;top=0;left=0;right=0;bottom=1;" parent="NiIEI1DRWo_ckf8no3QT-9" vertex="1">
                    <mxGeometry y="30" width="240" height="70" as="geometry"/>
                </mxCell>
                <mxCell id="NiIEI1DRWo_ckf8no3QT-11" value="PK" style="shape=partialRectangle;overflow=hidden;connectable=0;fillColor=none;top=0;left=0;bottom=0;right=0;fontStyle=1;" parent="NiIEI1DRWo_ckf8no3QT-10" vertex="1">
                    <mxGeometry width="30" height="70" as="geometry">
                        <mxRectangle width="30" height="70" as="alternateBounds"/>
                    </mxGeometry>
                </mxCell>
                <mxCell id="NiIEI1DRWo_ckf8no3QT-12" value="_id int " style="shape=partialRectangle;overflow=hidden;connectable=0;fillColor=none;top=0;left=0;bottom=0;right=0;align=left;spacingLeft=6;fontStyle=5;" parent="NiIEI1DRWo_ckf8no3QT-10" vertex="1">
                    <mxGeometry x="30" width="210" height="70" as="geometry">
                        <mxRectangle width="210" height="70" as="alternateBounds"/>
                    </mxGeometry>
                </mxCell>
                <mxCell id="NiIEI1DRWo_ckf8no3QT-13" value="" style="shape=partialRectangle;collapsible=0;dropTarget=0;pointerEvents=0;fillColor=none;points=[[0,0.5],[1,0.5]];portConstraint=eastwest;top=0;left=0;right=0;bottom=0;" parent="NiIEI1DRWo_ckf8no3QT-9" vertex="1">
                    <mxGeometry y="100" width="240" height="30" as="geometry"/>
                </mxCell>
                <mxCell id="NiIEI1DRWo_ckf8no3QT-14" value="FK" style="shape=partialRectangle;overflow=hidden;connectable=0;fillColor=none;top=0;left=0;bottom=0;right=0;" parent="NiIEI1DRWo_ckf8no3QT-13" vertex="1">
                    <mxGeometry width="30" height="30" as="geometry">
                        <mxRectangle width="30" height="30" as="alternateBounds"/>
                    </mxGeometry>
                </mxCell>
                <mxCell id="NiIEI1DRWo_ckf8no3QT-15" value="weatherDateID int" style="shape=partialRectangle;overflow=hidden;connectable=0;fillColor=none;top=0;left=0;bottom=0;right=0;align=left;spacingLeft=6;" parent="NiIEI1DRWo_ckf8no3QT-13" vertex="1">
                    <mxGeometry x="30" width="210" height="30" as="geometry">
                        <mxRectangle width="210" height="30" as="alternateBounds"/>
                    </mxGeometry>
                </mxCell>
                <mxCell id="NiIEI1DRWo_ckf8no3QT-17" value="" style="edgeStyle=entityRelationEdgeStyle;endArrow=ERzeroToMany;startArrow=ERone;endFill=1;startFill=0;entryX=0;entryY=0.5;entryDx=0;entryDy=0;" parent="1" source="NiIEI1DRWo_ckf8no3QT-2" target="NiIEI1DRWo_ckf8no3QT-10" edge="1">
                    <mxGeometry width="100" height="100" relative="1" as="geometry">
                        <mxPoint x="620" y="105" as="sourcePoint"/>
                        <mxPoint x="700" y="135" as="targetPoint"/>
                    </mxGeometry>
                </mxCell>
                <mxCell id="NiIEI1DRWo_ckf8no3QT-18" value="&lt;div&gt;The exact date and time&lt;/div&gt;&lt;div&gt;the weather data was saved&lt;br&gt;&lt;/div&gt;" style="text;html=1;align=center;verticalAlign=middle;resizable=0;points=[];autosize=1;strokeColor=none;fillColor=none;" parent="1" vertex="1">
                    <mxGeometry x="320" y="200" width="160" height="30" as="geometry"/>
                </mxCell>
                <mxCell id="NiIEI1DRWo_ckf8no3QT-19" value="The weather data of a feature at a given time " style="text;html=1;align=center;verticalAlign=middle;resizable=0;points=[];autosize=1;strokeColor=none;fillColor=none;" parent="1" vertex="1">
                    <mxGeometry x="585" y="210" width="250" height="20" as="geometry"/>
                </mxCell>
                <mxCell id="NiIEI1DRWo_ckf8no3QT-20" value="" style="edgeStyle=entityRelationEdgeStyle;fontSize=12;html=1;endArrow=ERmandOne;startArrow=ERmandOne;rounded=0;exitX=1;exitY=0.5;exitDx=0;exitDy=0;entryX=0;entryY=0.5;entryDx=0;entryDy=0;" parent="1" source="NiIEI1DRWo_ckf8no3QT-10" target="NiIEI1DRWo_ckf8no3QT-22" edge="1">
                    <mxGeometry width="100" height="100" relative="1" as="geometry">
                        <mxPoint x="860" y="300" as="sourcePoint"/>
                        <mxPoint x="960" y="295" as="targetPoint"/>
                    </mxGeometry>
                </mxCell>
                <mxCell id="NiIEI1DRWo_ckf8no3QT-21" value="regionBorders" style="shape=table;startSize=30;container=1;collapsible=1;childLayout=tableLayout;fixedRows=1;rowLines=0;fontStyle=1;align=center;resizeLast=1;" parent="1" vertex="1">
                    <mxGeometry x="880" y="230" width="240" height="170" as="geometry"/>
                </mxCell>
                <mxCell id="NiIEI1DRWo_ckf8no3QT-22" value="" style="shape=partialRectangle;collapsible=0;dropTarget=0;pointerEvents=0;fillColor=none;points=[[0,0.5],[1,0.5]];portConstraint=eastwest;top=0;left=0;right=0;bottom=1;" parent="NiIEI1DRWo_ckf8no3QT-21" vertex="1">
                    <mxGeometry y="30" width="240" height="70" as="geometry"/>
                </mxCell>
                <mxCell id="NiIEI1DRWo_ckf8no3QT-23" value="PK" style="shape=partialRectangle;overflow=hidden;connectable=0;fillColor=none;top=0;left=0;bottom=0;right=0;fontStyle=1;" parent="NiIEI1DRWo_ckf8no3QT-22" vertex="1">
                    <mxGeometry width="30" height="70" as="geometry">
                        <mxRectangle width="30" height="70" as="alternateBounds"/>
                    </mxGeometry>
                </mxCell>
                <mxCell id="NiIEI1DRWo_ckf8no3QT-24" value="_id int " style="shape=partialRectangle;overflow=hidden;connectable=0;fillColor=none;top=0;left=0;bottom=0;right=0;align=left;spacingLeft=6;fontStyle=5;" parent="NiIEI1DRWo_ckf8no3QT-22" vertex="1">
                    <mxGeometry x="30" width="210" height="70" as="geometry">
                        <mxRectangle width="210" height="70" as="alternateBounds"/>
                    </mxGeometry>
                </mxCell>
                <mxCell id="NiIEI1DRWo_ckf8no3QT-25" value="" style="shape=partialRectangle;collapsible=0;dropTarget=0;pointerEvents=0;fillColor=none;points=[[0,0.5],[1,0.5]];portConstraint=eastwest;top=0;left=0;right=0;bottom=0;" parent="NiIEI1DRWo_ckf8no3QT-21" vertex="1">
                    <mxGeometry y="100" width="240" height="70" as="geometry"/>
                </mxCell>
                <mxCell id="NiIEI1DRWo_ckf8no3QT-26" value="FK&#10;&#10;&#10;" style="shape=partialRectangle;overflow=hidden;connectable=0;fillColor=none;top=0;left=0;bottom=0;right=0;" parent="NiIEI1DRWo_ckf8no3QT-25" vertex="1">
                    <mxGeometry width="30" height="70" as="geometry">
                        <mxRectangle width="30" height="70" as="alternateBounds"/>
                    </mxGeometry>
                </mxCell>
                <mxCell id="NiIEI1DRWo_ckf8no3QT-27" value="coordinatesReferenceSystemID int&#10;geometry JSON&#10;properties JSON&#10;center JSON CAN NOT EXIST" style="shape=partialRectangle;overflow=hidden;connectable=0;fillColor=none;top=0;left=0;bottom=0;right=0;align=left;spacingLeft=6;" parent="NiIEI1DRWo_ckf8no3QT-25" vertex="1">
                    <mxGeometry x="30" width="210" height="70" as="geometry">
                        <mxRectangle width="210" height="70" as="alternateBounds"/>
                    </mxGeometry>
                </mxCell>
                <mxCell id="NiIEI1DRWo_ckf8no3QT-28" value="The information of a given region " style="text;html=1;align=center;verticalAlign=middle;resizable=0;points=[];autosize=1;strokeColor=none;fillColor=none;" parent="1" vertex="1">
                    <mxGeometry x="905" y="210" width="190" height="20" as="geometry"/>
                </mxCell>
                <mxCell id="NiIEI1DRWo_ckf8no3QT-37" value="coordinatesReferenceSystem" style="shape=table;startSize=30;container=1;collapsible=1;childLayout=tableLayout;fixedRows=1;rowLines=0;fontStyle=1;align=center;resizeLast=1;" parent="1" vertex="1">
                    <mxGeometry x="1170" y="230" width="240" height="170" as="geometry"/>
                </mxCell>
                <mxCell id="NiIEI1DRWo_ckf8no3QT-38" value="" style="shape=partialRectangle;collapsible=0;dropTarget=0;pointerEvents=0;fillColor=none;points=[[0,0.5],[1,0.5]];portConstraint=eastwest;top=0;left=0;right=0;bottom=1;" parent="NiIEI1DRWo_ckf8no3QT-37" vertex="1">
                    <mxGeometry y="30" width="240" height="70" as="geometry"/>
                </mxCell>
                <mxCell id="NiIEI1DRWo_ckf8no3QT-39" value="PK" style="shape=partialRectangle;overflow=hidden;connectable=0;fillColor=none;top=0;left=0;bottom=0;right=0;fontStyle=1;" parent="NiIEI1DRWo_ckf8no3QT-38" vertex="1">
                    <mxGeometry width="30" height="70" as="geometry">
                        <mxRectangle width="30" height="70" as="alternateBounds"/>
                    </mxGeometry>
                </mxCell>
                <mxCell id="NiIEI1DRWo_ckf8no3QT-40" value="_id int " style="shape=partialRectangle;overflow=hidden;connectable=0;fillColor=none;top=0;left=0;bottom=0;right=0;align=left;spacingLeft=6;fontStyle=5;" parent="NiIEI1DRWo_ckf8no3QT-38" vertex="1">
                    <mxGeometry x="30" width="210" height="70" as="geometry">
                        <mxRectangle width="210" height="70" as="alternateBounds"/>
                    </mxGeometry>
                </mxCell>
                <mxCell id="NiIEI1DRWo_ckf8no3QT-41" value="" style="shape=partialRectangle;collapsible=0;dropTarget=0;pointerEvents=0;fillColor=none;points=[[0,0.5],[1,0.5]];portConstraint=eastwest;top=0;left=0;right=0;bottom=0;" parent="NiIEI1DRWo_ckf8no3QT-37" vertex="1">
                    <mxGeometry y="100" width="240" height="70" as="geometry"/>
                </mxCell>
                <mxCell id="NiIEI1DRWo_ckf8no3QT-42" value="" style="shape=partialRectangle;overflow=hidden;connectable=0;fillColor=none;top=0;left=0;bottom=0;right=0;" parent="NiIEI1DRWo_ckf8no3QT-41" vertex="1">
                    <mxGeometry width="30" height="70" as="geometry">
                        <mxRectangle width="30" height="70" as="alternateBounds"/>
                    </mxGeometry>
                </mxCell>
                <mxCell id="NiIEI1DRWo_ckf8no3QT-43" value="crs OBJECT" style="shape=partialRectangle;overflow=hidden;connectable=0;fillColor=none;top=0;left=0;bottom=0;right=0;align=left;spacingLeft=6;" parent="NiIEI1DRWo_ckf8no3QT-41" vertex="1">
                    <mxGeometry x="30" width="210" height="70" as="geometry">
                        <mxRectangle width="210" height="70" as="alternateBounds"/>
                    </mxGeometry>
                </mxCell>
                <mxCell id="NiIEI1DRWo_ckf8no3QT-44" value="" style="edgeStyle=entityRelationEdgeStyle;endArrow=ERzeroToMany;startArrow=ERone;endFill=1;startFill=0;entryX=1;entryY=0.5;entryDx=0;entryDy=0;exitX=0;exitY=0.5;exitDx=0;exitDy=0;" parent="1" source="NiIEI1DRWo_ckf8no3QT-38" target="NiIEI1DRWo_ckf8no3QT-22" edge="1">
                    <mxGeometry width="100" height="100" relative="1" as="geometry">
                        <mxPoint x="1230" y="130" as="sourcePoint"/>
                        <mxPoint x="1300" y="130" as="targetPoint"/>
                    </mxGeometry>
                </mxCell>
                <mxCell id="NiIEI1DRWo_ckf8no3QT-45" value="&lt;div&gt;The crs that a given region border &lt;br&gt;&lt;/div&gt;&lt;div&gt;was saved with&lt;/div&gt;" style="text;html=1;align=center;verticalAlign=middle;resizable=0;points=[];autosize=1;strokeColor=none;fillColor=none;" parent="1" vertex="1">
                    <mxGeometry x="1190" y="200" width="190" height="30" as="geometry"/>
                </mxCell>
            </root>
        </mxGraphModel>
    </diagram>
</mxfile>